<svg width="16" height="17" viewBox="0 0 16 17" fill="none" xmlns="http://www.w3.org/2000/svg">
<g id="archive-down-minimlistic-svgrepo-com 1">
<path id="Vector" d="M1.3335 8.5048C1.3335 5.3621 1.3335 3.79075 2.30981 2.81445C3.28612 1.83813 4.85746 1.83813 8.00016 1.83813C11.1428 1.83813 12.7142 1.83813 13.6905 2.81445C14.6668 3.79075 14.6668 5.3621 14.6668 8.5048" stroke="#EAB308"/>
<path id="Vector_2" d="M1.3335 9.83809C1.3335 7.97123 1.3335 7.03783 1.69681 6.32479C2.01638 5.69759 2.52632 5.18765 3.15353 4.86807C3.86657 4.50476 4.79999 4.50476 6.66683 4.50476H9.3335C11.2004 4.50476 12.1338 4.50476 12.8468 4.86807C13.474 5.18765 13.984 5.69759 14.3035 6.32479C14.6668 7.03783 14.6668 7.97123 14.6668 9.83809C14.6668 11.705 14.6668 12.6384 14.3035 13.3514C13.984 13.9786 13.474 14.4886 12.8468 14.8081C12.1338 15.1714 11.2004 15.1714 9.3335 15.1714H6.66683C4.79999 15.1714 3.86657 15.1714 3.15353 14.8081C2.52632 14.4886 2.01638 13.9786 1.69681 13.3514C1.3335 12.6384 1.3335 11.705 1.3335 9.83809Z" stroke="#EAB308"/>
<path id="Vector_3" d="M8.00016 7.83813V11.8381M8.00016 11.8381L9.66683 10.1715M8.00016 11.8381L6.3335 10.1715" stroke="#EAB308" stroke-linecap="round" stroke-linejoin="round"/>
</g>
</svg>
