<svg width="176" height="28" viewBox="0 0 176 28" fill="none" xmlns="http://www.w3.org/2000/svg">
<g id="Group 2090">
<g id="Group 2088">
<rect id="Rectangle 894" x="38.0156" y="11.8462" width="2.11197" height="4.30769" rx="1.05599" fill="#030712"/>
<rect id="Rectangle 886" y="11.8462" width="2.11197" height="4.30769" rx="1.05599" fill="#030712"/>
<rect id="Rectangle 905" x="99.2627" y="16.1538" width="2.11197" height="4.30769" rx="1.05599" transform="rotate(-180 99.2627 16.1538)" fill="#C4C4C4"/>
<rect id="Rectangle 895" x="42.2393" y="9.69238" width="2.11197" height="8.61538" rx="1.05599" fill="#030712"/>
<rect id="Rectangle 900" x="63.3584" y="6.46143" width="2.11197" height="14" rx="1.05599" fill="#030712"/>
<rect id="Rectangle 906" x="95.0391" y="18.3076" width="2.11197" height="8.61538" rx="1.05599" transform="rotate(-180 95.0391 18.3076)" fill="#030712"/>
<rect id="Rectangle 896" x="61.2471" y="18.3076" width="2.11197" height="8.61538" rx="1.05599" transform="rotate(-180 61.2471 18.3076)" fill="#030712"/>
<rect id="Rectangle 901" x="82.3662" y="21.5386" width="2.11197" height="15.0769" rx="1.05599" transform="rotate(-180 82.3662 21.5386)" fill="#030712"/>
<rect id="Rectangle 897" x="46.4629" y="7.53857" width="2.11197" height="12.9231" rx="1.05599" fill="#030712"/>
<rect id="Rectangle 902" x="67.583" y="3.23071" width="2.11197" height="21.5385" rx="1.05599" fill="#030712"/>
<rect id="Rectangle 907" x="90.8145" y="20.4614" width="2.11197" height="12.9231" rx="1.05599" transform="rotate(-180 90.8145 20.4614)" fill="#030712"/>
<rect id="Rectangle 898" x="57.0234" y="20.4614" width="2.11197" height="12.9231" rx="1.05599" transform="rotate(-180 57.0234 20.4614)" fill="#030712"/>
<rect id="Rectangle 903" x="78.1416" y="24.7693" width="2.11197" height="21.5385" rx="1.05599" transform="rotate(-180 78.1416 24.7693)" fill="#030712"/>
<rect id="Rectangle 908" x="84.4785" y="5.38477" width="2.11197" height="17.2308" rx="1.05599" fill="#030712"/>
<rect id="Rectangle 899" x="50.6865" y="5.38477" width="2.11197" height="17.2308" rx="1.05599" fill="#030712"/>
<rect id="Rectangle 904" x="71.8066" width="2.11197" height="28" rx="1.05599" fill="#030712"/>
<rect id="Rectangle 885" x="6.33594" y="16.1538" width="2.11197" height="4.30769" rx="1.05599" transform="rotate(-180 6.33594 16.1538)" fill="#030712"/>
<rect id="Rectangle 892" x="31.6787" y="17.2307" width="2.11197" height="6.46154" rx="1.05599" transform="rotate(-180 31.6787 17.2307)" fill="#030712"/>
<rect id="Rectangle 893" x="35.9023" y="16.1538" width="2.11197" height="4.30769" rx="1.05599" transform="rotate(-180 35.9023 16.1538)" fill="#030712"/>
<rect id="Rectangle 887" x="8.44824" y="9.69238" width="2.11197" height="8.61538" rx="1.05599" fill="#030712"/>
<rect id="Rectangle 888" x="27.4551" y="19.3845" width="2.11197" height="10.7692" rx="1.05599" transform="rotate(-180 27.4551 19.3845)" fill="#030712"/>
<rect id="Rectangle 889" x="12.6729" y="7.53857" width="2.11197" height="12.9231" rx="1.05599" fill="#030712"/>
<rect id="Rectangle 890" x="23.2305" y="22.6155" width="2.11197" height="17.2308" rx="1.05599" transform="rotate(-180 23.2305 22.6155)" fill="#030712"/>
<rect id="Rectangle 891" x="16.8965" y="3.23071" width="2.11197" height="21.5385" rx="1.05599" fill="#030712"/>
</g>
<g id="Group 2089">
<rect id="Rectangle 876" x="97.3691" y="11.8462" width="2.11197" height="4.30769" rx="1.05599" fill="#030712"/>
<rect id="Rectangle 894_2" x="173.4" y="11.8462" width="2.11197" height="4.30769" rx="1.05599" fill="#030712"/>
<rect id="Rectangle 886_2" x="135.385" y="11.8462" width="2.11197" height="4.30769" rx="1.05599" fill="#030712"/>
<rect id="Rectangle 880" x="124.825" y="16.1538" width="2.11197" height="4.30769" rx="1.05599" transform="rotate(-180 124.825 16.1538)" fill="#030712"/>
<rect id="Rectangle 883" x="129.049" y="16.1538" width="2.11197" height="4.30769" rx="1.05599" transform="rotate(-180 129.049 16.1538)" fill="#030712"/>
<rect id="Rectangle 884" x="133.273" y="16.1538" width="2.11197" height="4.30769" rx="1.05599" transform="rotate(-180 133.273 16.1538)" fill="#030712"/>
<rect id="Rectangle 877" x="101.593" y="9.69238" width="2.11197" height="8.61538" rx="1.05599" fill="#030712"/>
<rect id="Rectangle 881" x="120.602" y="18.3076" width="2.11197" height="8.61538" rx="1.05599" transform="rotate(-180 120.602 18.3076)" fill="#030712"/>
<rect id="Rectangle 878" x="105.817" y="7.53833" width="2.11197" height="12.9231" rx="1.05599" fill="#030712"/>
<rect id="Rectangle 882" x="116.377" y="20.4614" width="2.11197" height="12.9231" rx="1.05599" transform="rotate(-180 116.377 20.4614)" fill="#030712"/>
<rect id="Rectangle 879" x="110.041" y="5.38452" width="2.11197" height="17.2308" rx="1.05599" fill="#030712"/>
<rect id="Rectangle 885_2" x="141.721" y="16.1538" width="2.11197" height="4.30769" rx="1.05599" transform="rotate(-180 141.721 16.1538)" fill="#030712"/>
<rect id="Rectangle 892_2" x="167.063" y="17.2307" width="2.11197" height="6.46154" rx="1.05599" transform="rotate(-180 167.063 17.2307)" fill="#030712"/>
<rect id="Rectangle 893_2" x="171.287" y="16.1538" width="2.11197" height="4.30769" rx="1.05599" transform="rotate(-180 171.287 16.1538)" fill="#030712"/>
<rect id="Rectangle 887_2" x="143.833" y="9.69238" width="2.11197" height="8.61538" rx="1.05599" fill="#030712"/>
<rect id="Rectangle 888_2" x="162.84" y="19.3845" width="2.11197" height="10.7692" rx="1.05599" transform="rotate(-180 162.84 19.3845)" fill="#030712"/>
<rect id="Rectangle 889_2" x="148.058" y="7.53833" width="2.11197" height="12.9231" rx="1.05599" fill="#030712"/>
<rect id="Rectangle 890_2" x="158.615" y="22.6152" width="2.11197" height="17.2308" rx="1.05599" transform="rotate(-180 158.615 22.6152)" fill="#030712"/>
<rect id="Rectangle 891_2" x="152.281" y="3.23071" width="2.11197" height="21.5385" rx="1.05599" fill="#030712"/>
</g>
</g>
</svg>
