<svg width="25" height="25" viewBox="0 0 25 25" fill="none" xmlns="http://www.w3.org/2000/svg">
<g id="material-symbols:search">
<path id="Vector" d="M20.1259 21.5L13.8259 15.2C13.3259 15.6 12.7509 15.9167 12.1009 16.15C11.4509 16.3833 10.7592 16.5 10.0259 16.5C8.20921 16.5 6.67188 15.8707 5.41388 14.612C4.15588 13.3533 3.52655 11.816 3.52588 10C3.52588 8.18333 4.15521 6.646 5.41388 5.388C6.67255 4.13 8.20988 3.50067 10.0259 3.5C11.8425 3.5 13.3799 4.12933 14.6379 5.388C15.8959 6.64667 16.5252 8.184 16.5259 10C16.5259 10.7333 16.4092 11.425 16.1759 12.075C15.9425 12.725 15.6259 13.3 15.2259 13.8L21.5259 20.1L20.1259 21.5ZM10.0259 14.5C11.2759 14.5 12.3385 14.0623 13.2139 13.187C14.0892 12.3117 14.5265 11.2493 14.5259 10C14.5259 8.75 14.0882 7.68733 13.2129 6.812C12.3375 5.93667 11.2752 5.49933 10.0259 5.5C8.77588 5.5 7.71321 5.93767 6.83788 6.813C5.96255 7.68833 5.52521 8.75067 5.52588 10C5.52588 11.25 5.96355 12.3127 6.83888 13.188C7.71421 14.0633 8.77655 14.5007 10.0259 14.5Z" fill="#F5F5F5"/>
</g>
</svg>
