<svg width="25" height="24" viewBox="0 0 25 24" fill="none" xmlns="http://www.w3.org/2000/svg">
<g id="solar:calendar-outline">
<g id="Group">
<path id="Vector" d="M17.5 14C17.7652 14 18.0196 13.8946 18.2071 13.7071C18.3946 13.5196 18.5 13.2652 18.5 13C18.5 12.7348 18.3946 12.4804 18.2071 12.2929C18.0196 12.1054 17.7652 12 17.5 12C17.2348 12 16.9804 12.1054 16.7929 12.2929C16.6054 12.4804 16.5 12.7348 16.5 13C16.5 13.2652 16.6054 13.5196 16.7929 13.7071C16.9804 13.8946 17.2348 14 17.5 14ZM17.5 18C17.7652 18 18.0196 17.8946 18.2071 17.7071C18.3946 17.5196 18.5 17.2652 18.5 17C18.5 16.7348 18.3946 16.4804 18.2071 16.2929C18.0196 16.1054 17.7652 16 17.5 16C17.2348 16 16.9804 16.1054 16.7929 16.2929C16.6054 16.4804 16.5 16.7348 16.5 17C16.5 17.2652 16.6054 17.5196 16.7929 17.7071C16.9804 17.8946 17.2348 18 17.5 18ZM13.5 13C13.5 13.2652 13.3946 13.5196 13.2071 13.7071C13.0196 13.8946 12.7652 14 12.5 14C12.2348 14 11.9804 13.8946 11.7929 13.7071C11.6054 13.5196 11.5 13.2652 11.5 13C11.5 12.7348 11.6054 12.4804 11.7929 12.2929C11.9804 12.1054 12.2348 12 12.5 12C12.7652 12 13.0196 12.1054 13.2071 12.2929C13.3946 12.4804 13.5 12.7348 13.5 13ZM13.5 17C13.5 17.2652 13.3946 17.5196 13.2071 17.7071C13.0196 17.8946 12.7652 18 12.5 18C12.2348 18 11.9804 17.8946 11.7929 17.7071C11.6054 17.5196 11.5 17.2652 11.5 17C11.5 16.7348 11.6054 16.4804 11.7929 16.2929C11.9804 16.1054 12.2348 16 12.5 16C12.7652 16 13.0196 16.1054 13.2071 16.2929C13.3946 16.4804 13.5 16.7348 13.5 17ZM7.5 14C7.76522 14 8.01957 13.8946 8.20711 13.7071C8.39464 13.5196 8.5 13.2652 8.5 13C8.5 12.7348 8.39464 12.4804 8.20711 12.2929C8.01957 12.1054 7.76522 12 7.5 12C7.23478 12 6.98043 12.1054 6.79289 12.2929C6.60536 12.4804 6.5 12.7348 6.5 13C6.5 13.2652 6.60536 13.5196 6.79289 13.7071C6.98043 13.8946 7.23478 14 7.5 14ZM7.5 18C7.76522 18 8.01957 17.8946 8.20711 17.7071C8.39464 17.5196 8.5 17.2652 8.5 17C8.5 16.7348 8.39464 16.4804 8.20711 16.2929C8.01957 16.1054 7.76522 16 7.5 16C7.23478 16 6.98043 16.1054 6.79289 16.2929C6.60536 16.4804 6.5 16.7348 6.5 17C6.5 17.2652 6.60536 17.5196 6.79289 17.7071C6.98043 17.8946 7.23478 18 7.5 18Z" fill="#F0F0F0" fill-opacity="0.75"/>
<path id="Vector_2" fill-rule="evenodd" clip-rule="evenodd" d="M7.5 1.75C7.69891 1.75 7.88968 1.82902 8.03033 1.96967C8.17098 2.11032 8.25 2.30109 8.25 2.5V3.263C8.912 3.25 9.641 3.25 10.443 3.25H14.556C15.359 3.25 16.088 3.25 16.75 3.263V2.5C16.75 2.30109 16.829 2.11032 16.9697 1.96967C17.1103 1.82902 17.3011 1.75 17.5 1.75C17.6989 1.75 17.8897 1.82902 18.0303 1.96967C18.171 2.11032 18.25 2.30109 18.25 2.5V3.327C18.51 3.347 18.756 3.372 18.989 3.403C20.161 3.561 21.11 3.893 21.859 4.641C22.607 5.39 22.939 6.339 23.097 7.511C23.25 8.651 23.25 10.106 23.25 11.944V14.056C23.25 15.894 23.25 17.35 23.097 18.489C22.939 19.661 22.607 20.61 21.859 21.359C21.11 22.107 20.161 22.439 18.989 22.597C17.849 22.75 16.394 22.75 14.556 22.75H10.444C8.606 22.75 7.15 22.75 6.011 22.597C4.839 22.439 3.89 22.107 3.141 21.359C2.393 20.61 2.061 19.661 1.903 18.489C1.75 17.349 1.75 15.894 1.75 14.056V11.944C1.75 10.106 1.75 8.65 1.903 7.511C2.061 6.339 2.393 5.39 3.141 4.641C3.89 3.893 4.839 3.561 6.011 3.403C6.244 3.372 6.491 3.347 6.75 3.327V2.5C6.75 2.30109 6.82902 2.11032 6.96967 1.96967C7.11032 1.82902 7.30109 1.75 7.5 1.75ZM6.21 4.89C5.205 5.025 4.625 5.279 4.202 5.702C3.779 6.125 3.525 6.705 3.39 7.711C3.367 7.881 3.348 8.061 3.332 8.25H21.668C21.652 8.06 21.633 7.881 21.61 7.71C21.475 6.705 21.221 6.125 20.798 5.702C20.375 5.279 19.795 5.025 18.789 4.89C17.762 4.752 16.407 4.75 14.5 4.75H10.5C8.593 4.75 7.239 4.752 6.21 4.89ZM3.25 12C3.25 11.146 3.25 10.403 3.263 9.75H21.737C21.75 10.403 21.75 11.146 21.75 12V14C21.75 15.907 21.748 17.262 21.61 18.29C21.475 19.295 21.221 19.875 20.798 20.298C20.375 20.721 19.795 20.975 18.789 21.11C17.762 21.248 16.407 21.25 14.5 21.25H10.5C8.593 21.25 7.239 21.248 6.21 21.11C5.205 20.975 4.625 20.721 4.202 20.298C3.779 19.875 3.525 19.295 3.39 18.289C3.252 17.262 3.25 15.907 3.25 14V12Z" fill="#F0F0F0" fill-opacity="0.75"/>
</g>
</g>
</svg>
