<svg width="18" height="18" viewBox="0 0 18 18" fill="none" xmlns="http://www.w3.org/2000/svg">
<g id="fluent:note-add-24-regular">
<path id="Vector" d="M9 4.875C9 4.3333 8.8933 3.7969 8.686 3.29643C8.4787 2.79596 8.17486 2.34123 7.79182 1.95818C7.40877 1.57514 6.95404 1.2713 6.45357 1.064C5.9531 0.856696 5.4167 0.75 4.875 0.75C4.3333 0.75 3.7969 0.856696 3.29643 1.064C2.79596 1.2713 2.34123 1.57514 1.95818 1.95818C1.57514 2.34123 1.2713 2.79596 1.064 3.29643C0.856696 3.7969 0.75 4.3333 0.75 4.875C0.75 5.96902 1.1846 7.01823 1.95818 7.79182C2.73177 8.5654 3.78098 9 4.875 9C5.96902 9 7.01823 8.5654 7.79182 7.79182C8.5654 7.01823 9 5.96902 9 4.875ZM5.25 5.25L5.25075 7.128C5.25075 7.22746 5.21124 7.32284 5.14091 7.39317C5.07059 7.46349 4.97521 7.503 4.87575 7.503C4.77629 7.503 4.68091 7.46349 4.61058 7.39317C4.54026 7.32284 4.50075 7.22746 4.50075 7.128V5.25H2.622C2.52254 5.25 2.42716 5.21049 2.35683 5.14016C2.28651 5.06984 2.247 4.97446 2.247 4.875C2.247 4.77554 2.28651 4.68016 2.35683 4.60984C2.42716 4.53951 2.52254 4.5 2.622 4.5H4.5V2.625C4.5 2.52554 4.53951 2.43016 4.60984 2.35984C4.68016 2.28951 4.77554 2.25 4.875 2.25C4.97446 2.25 5.06984 2.28951 5.14016 2.35984C5.21049 2.43016 5.25 2.52554 5.25 2.625V4.5H7.12725C7.22671 4.5 7.32209 4.53951 7.39242 4.60984C7.46274 4.68016 7.50225 4.77554 7.50225 4.875C7.50225 4.97446 7.46274 5.06984 7.39242 5.14016C7.32209 5.21049 7.22671 5.25 7.12725 5.25H5.25ZM13.3125 3.375H9.51525C9.387 2.97874 9.20828 2.60063 8.9835 2.25H13.3125C13.959 2.25 14.579 2.50681 15.0361 2.96393C15.4932 3.42105 15.75 4.04103 15.75 4.6875V9.84675C15.7498 10.294 15.572 10.723 15.2557 11.0392L11.04 15.2557C10.8833 15.4124 10.6973 15.5367 10.4925 15.6216C10.2878 15.7064 10.0684 15.75 9.84675 15.75H4.6875C4.04103 15.75 3.42105 15.4932 2.96393 15.0361C2.50681 14.579 2.25 13.959 2.25 13.3125V8.9835C2.59725 9.20625 2.97525 9.3855 3.375 9.51525V13.3125C3.375 14.037 3.963 14.625 4.6875 14.625H9.75V12.1875C9.74996 11.5649 9.98817 10.9659 10.4158 10.5133C10.8433 10.0608 11.4279 9.789 12.0495 9.75375L12.1875 9.75H14.625V4.6875C14.625 4.3394 14.4867 4.00556 14.2406 3.75942C13.9944 3.51328 13.6606 3.375 13.3125 3.375ZM13.8292 10.875H12.1875C11.858 10.875 11.5405 10.999 11.2982 11.2223C11.0559 11.4456 10.9064 11.7518 10.8795 12.0802L10.875 12.1875V13.8292L13.8292 10.875Z" fill="white"/>
</g>
</svg>
