<svg width="18" height="19" viewBox="0 0 18 19" fill="none" xmlns="http://www.w3.org/2000/svg">
<g id="streamline:money-cash-dollar-coin-accounting-billing-payment-cash-coin-currency-money-finance" clip-path="url(#clip0_90_3375)">
<g id="Group">
<path id="Vector" d="M8.99986 6.28563V4.35706M8.99986 6.28563C7.93272 6.28563 7.07129 6.28563 7.07129 7.57134C7.07129 9.49991 10.9284 9.49991 10.9284 11.4285C10.9284 12.7142 10.067 12.7142 8.99986 12.7142M8.99986 6.28563C10.067 6.28563 10.9284 6.7742 10.9284 7.57134M7.07129 11.4285C7.07129 12.3928 7.93272 12.7142 8.99986 12.7142M8.99986 12.7142V14.6428" stroke="#F5F5F5" stroke-linecap="round" stroke-linejoin="round"/>
<path id="Vector_2" d="M8.99972 17.8571C13.6152 17.8571 17.3569 14.1155 17.3569 9.49996C17.3569 4.88444 13.6152 1.14282 8.99972 1.14282C4.3842 1.14282 0.642578 4.88444 0.642578 9.49996C0.642578 14.1155 4.3842 17.8571 8.99972 17.8571Z" stroke="#F5F5F5" stroke-linecap="round" stroke-linejoin="round"/>
</g>
</g>
<defs>
<clipPath id="clip0_90_3375">
<rect width="18" height="18" fill="white" transform="translate(0 0.5)"/>
</clipPath>
</defs>
</svg>
