<svg width="60" height="44" viewBox="0 0 60 44" fill="none" xmlns="http://www.w3.org/2000/svg">
<path d="M16.6665 43.168C13.024 42.9325 9.56292 41.7338 6.77758 39.7431C3.99223 37.7525 2.025 35.0716 1.15678 32.0833C0.288556 29.095 0.563741 25.9521 1.94304 23.1034C3.32234 20.2547 5.73522 17.8458 8.83716 16.2206C9.49719 11.8868 12.01 7.90403 15.9052 5.01763C19.8005 2.13124 24.8112 0.539062 29.9998 0.539062C35.1884 0.539062 40.1992 2.13124 44.0944 5.01763C47.9897 7.90403 50.5025 11.8868 51.1625 16.2206C54.2644 17.8458 56.6773 20.2547 58.0566 23.1034C59.4359 25.9521 59.7111 29.095 58.8429 32.0833C57.9747 35.0716 56.0074 37.7525 53.2221 39.7431C50.4367 41.7338 46.9757 42.9325 43.3332 43.168V43.2107H16.6665V43.168ZM32.6665 25.2458H40.6665L29.9998 14.0177L19.3332 25.2458H27.3332V34.2282H32.6665V25.2458Z" fill="#EAB308"/>
</svg>
