<svg xmlns="http://www.w3.org/2000/svg" width="18" height="18" viewBox="0 0 18 18" fill="none">
  <path d="M8.75 4.25C5.62163 4.25 4.05746 4.25 3.06443 5.19544C3.0238 5.23412 2.98412 5.2738 2.94544 5.31443C2 6.30746 2 7.87163 2 11V14.5357C2 15.3438 2 15.7479 2.25105 15.9989C2.50211 16.25 2.90616 16.25 3.71429 16.25H7.25C10.3784 16.25 11.9425 16.25 12.9356 15.3046C12.9762 15.2659 13.0159 15.2262 13.0546 15.1856C14 14.1925 14 12.6284 14 9.5" stroke="white"/>
  <path d="M5 8H10" stroke="white" stroke-linecap="round" stroke-linejoin="round"/>
  <path d="M5 11H8" stroke="white" stroke-linecap="round" stroke-linejoin="round"/>
  <path d="M13.25 8V2M10.25 5H16.25" stroke="white" stroke-linecap="round" stroke-linejoin="round"/>
</svg>