<svg width="33" height="32" viewBox="0 0 33 32" fill="none" xmlns="http://www.w3.org/2000/svg">
<g id="carbon:pause-outline">
<path id="Vector" d="M14.5117 10H12.5117V22H14.5117V10ZM20.5117 10H18.5117V22H20.5117V10Z" fill="#EF4444"/>
<path id="Vector_2" d="M16.5117 4C18.8851 4 21.2052 4.70379 23.1786 6.02236C25.152 7.34094 26.69 9.21509 27.5983 11.4078C28.5065 13.6005 28.7442 16.0133 28.2811 18.3411C27.8181 20.6689 26.6752 22.8071 24.997 24.4853C23.3188 26.1635 21.1806 27.3064 18.8528 27.7694C16.525 28.2324 14.1122 27.9948 11.9195 27.0866C9.72681 26.1783 7.85267 24.6402 6.53409 22.6668C5.21551 20.6935 4.51173 18.3734 4.51173 16C4.51173 12.8174 5.77601 9.76515 8.02644 7.51472C10.2769 5.26428 13.3291 4 16.5117 4ZM16.5117 2C13.7428 2 11.036 2.82109 8.73374 4.35943C6.43145 5.89777 4.63704 8.08427 3.57741 10.6424C2.51778 13.2006 2.24054 16.0155 2.78073 18.7313C3.32092 21.447 4.65429 23.9416 6.61223 25.8995C8.57016 27.8574 11.0647 29.1908 13.7805 29.731C16.4962 30.2712 19.3111 29.9939 21.8693 28.9343C24.4275 27.8747 26.614 26.0803 28.1523 23.778C29.6906 21.4757 30.5117 18.7689 30.5117 16C30.5117 12.287 29.0367 8.72601 26.4112 6.1005C23.7857 3.475 20.2248 2 16.5117 2Z" fill="#EF4444"/>
</g>
</svg>
