<svg width="24" height="25" viewBox="0 0 24 25" fill="none" xmlns="http://www.w3.org/2000/svg">
<g id="simple-line-icons:plus" clip-path="url(#clip0_18_3740)">
<path id="Vector" d="M12 0.5C5.37262 0.5 0 5.87262 0 12.5C0 19.1278 5.37262 24.5 12 24.5C18.6278 24.5 24 19.1278 24 12.5C24 5.87262 18.6278 0.5 12 0.5ZM12 23.0236C6.21037 23.0236 1.5 18.2896 1.5 12.5C1.5 6.71033 6.21037 1.99995 12 1.99995C17.7896 1.99995 22.5 6.71035 22.5 12.5C22.5 18.2896 17.7896 23.0236 12 23.0236ZM17.25 11.75H12.75V7.25C12.75 6.836 12.414 6.5 12 6.5C11.586 6.5 11.25 6.836 11.25 7.25V11.75H6.75C6.336 11.75 6 12.086 6 12.5C6 12.914 6.336 13.25 6.75 13.25H11.25V17.75C11.25 18.164 11.586 18.5 12 18.5C12.414 18.5 12.75 18.164 12.75 17.75V13.25H17.25C17.664 13.25 18 12.914 18 12.5C18 12.086 17.664 11.75 17.25 11.75Z" fill="#F5F5F5"/>
</g>
<defs>
<clipPath id="clip0_18_3740">
<rect width="24" height="24" fill="white" transform="translate(0 0.5)"/>
</clipPath>
</defs>
</svg>
