<svg width="14" height="18" viewBox="0 0 14 18" fill="none" xmlns="http://www.w3.org/2000/svg">
<path d="M13.75 8.9999C13.7505 9.21211 13.6961 9.42084 13.5921 9.60579C13.488 9.79075 13.3379 9.94563 13.1562 10.0554L1.9 16.9413C1.71022 17.0575 1.49287 17.121 1.27037 17.1251C1.04788 17.1292 0.828324 17.0738 0.634375 16.9647C0.442273 16.8573 0.282247 16.7007 0.170753 16.5109C0.0592589 16.3212 0.000320983 16.1051 0 15.8851V2.11475C0.000320983 1.89466 0.0592589 1.67862 0.170753 1.48886C0.282247 1.2991 0.442273 1.14247 0.634375 1.03506C0.828324 0.925955 1.04788 0.870606 1.27037 0.874726C1.49287 0.878846 1.71022 0.942287 1.9 1.0585L13.1562 7.94443C13.3379 8.05418 13.488 8.20906 13.5921 8.39401C13.6961 8.57896 13.7505 8.78769 13.75 8.9999Z" fill="#EAB308"/>
</svg>
