<svg width="16" height="16" viewBox="0 0 16 16" fill="none" xmlns="http://www.w3.org/2000/svg">
<g id="mdi-light:tag">
<path id="Vector" d="M10.4135 14.08C10.0385 14.4545 9.53016 14.6649 9.00016 14.6649C8.47016 14.6649 7.96183 14.4545 7.58683 14.08L2.0335 8.66667C1.6335 8.3 1.3335 7.75333 1.3335 7.16667V4C1.3335 3.46957 1.54421 2.96086 1.91928 2.58579C2.29436 2.21071 2.80306 2 3.3335 2H6.50016C7.08683 2 7.6335 2.3 8.00016 2.7L13.3802 8.28667C13.7547 8.66167 13.9651 9.17 13.9651 9.7C13.9651 10.23 13.7547 10.7383 13.3802 11.1133L10.4135 14.08ZM9.94016 13.6067L12.9068 10.64C13.4268 10.12 13.4268 9.27333 12.9068 8.75333L7.40683 3.05333C7.18683 2.8 6.86683 2.66667 6.50016 2.66667L3.3135 2.64667C2.58016 2.64667 2.00016 3.26667 2.00016 4V7.16667C2.00016 7.53333 2.1335 7.85333 2.38683 8.07333L8.0535 13.6067C8.5735 14.1267 9.42016 14.1267 9.94016 13.6067ZM4.3335 3.33333C4.77552 3.33333 5.19945 3.50893 5.51201 3.82149C5.82457 4.13405 6.00016 4.55797 6.00016 5C6.00016 5.44203 5.82457 5.86595 5.51201 6.17851C5.19945 6.49107 4.77552 6.66667 4.3335 6.66667C3.89147 6.66667 3.46755 6.49107 3.15498 6.17851C2.84242 5.86595 2.66683 5.44203 2.66683 5C2.66683 4.55797 2.84242 4.13405 3.15498 3.82149C3.46755 3.50893 3.89147 3.33333 4.3335 3.33333ZM4.3335 4C4.06828 4 3.81393 4.10536 3.62639 4.29289C3.43885 4.48043 3.3335 4.73478 3.3335 5C3.3335 5.26522 3.43885 5.51957 3.62639 5.70711C3.81393 5.89464 4.06828 6 4.3335 6C4.59871 6 4.85307 5.89464 5.0406 5.70711C5.22814 5.51957 5.3335 5.26522 5.3335 5C5.3335 4.73478 5.22814 4.48043 5.0406 4.29289C4.85307 4.10536 4.59871 4 4.3335 4Z" fill="#030712"/>
</g>
</svg>
