<svg width="25" height="25" viewBox="0 0 25 25" fill="none" xmlns="http://www.w3.org/2000/svg">
<g id="ri:more-2-fill">
<path id="Vector" d="M12.5259 3.5C11.4259 3.5 10.5259 4.4 10.5259 5.5C10.5259 6.6 11.4259 7.5 12.5259 7.5C13.6259 7.5 14.5259 6.6 14.5259 5.5C14.5259 4.4 13.6259 3.5 12.5259 3.5ZM12.5259 17.5C11.4259 17.5 10.5259 18.4 10.5259 19.5C10.5259 20.6 11.4259 21.5 12.5259 21.5C13.6259 21.5 14.5259 20.6 14.5259 19.5C14.5259 18.4 13.6259 17.5 12.5259 17.5ZM12.5259 10.5C11.4259 10.5 10.5259 11.4 10.5259 12.5C10.5259 13.6 11.4259 14.5 12.5259 14.5C13.6259 14.5 14.5259 13.6 14.5259 12.5C14.5259 11.4 13.6259 10.5 12.5259 10.5Z" fill="#F5F5F5"/>
</g>
</svg>
