<svg width="24" height="24" viewBox="0 0 24 24" fill="none" xmlns="http://www.w3.org/2000/svg">
<g id="9">
<path id="Vector" d="M17.9298 17.94C21.5998 14.27 21.1598 8.04999 16.6198 4.98999C13.7898 3.07999 9.96977 3.13999 7.18977 5.10999C3.34977 7.82999 2.58977 12.87 4.90977 16.51L3.82977 19.19C3.57977 19.8 4.18977 20.41 4.80977 20.17L7.48977 19.09C10.7298 21.16 15.0898 20.78 17.9298 17.94Z" stroke="#EAB308" stroke-width="1.2" stroke-miterlimit="10" stroke-linecap="round" stroke-linejoin="round"/>
<g id="Group">
<path id="Vector_2" d="M13.0601 10.42H8.28006" stroke="#EAB308" stroke-width="1.2" stroke-miterlimit="10" stroke-linecap="round" stroke-linejoin="round"/>
<path id="Vector_3" d="M15.5698 13.71H10.2798" stroke="#EAB308" stroke-width="1.2" stroke-miterlimit="10" stroke-linecap="round" stroke-linejoin="round"/>
</g>
<path id="Ellipse 85" d="M23.5 4C23.5 5.933 21.933 7.5 20 7.5C18.067 7.5 16.5 5.933 16.5 4C16.5 2.067 18.067 0.5 20 0.5C21.933 0.5 23.5 2.067 23.5 4Z" stroke="#EAB308"/>
</g>
</svg>
