<svg width="24" height="25" viewBox="0 0 24 25" fill="none" xmlns="http://www.w3.org/2000/svg">
<g id="paper-airplane-svgrepo-com 1">
<path id="Vector" d="M14.1749 23.4048C13.9312 23.386 13.7062 23.2173 13.6312 22.9735L11.0999 13.786L1.85617 11.1985C1.61242 11.1235 1.44367 10.9173 1.42492 10.6548C1.40617 10.3923 1.55617 10.1673 1.79992 10.0735L21.7499 2.32977C21.8249 2.31102 21.8812 2.29227 21.9562 2.29227C22.1062 2.29227 22.2562 2.34852 22.3687 2.46102C22.5374 2.62977 22.5937 2.87352 22.4999 3.09852L14.7562 23.0298C14.6624 23.2548 14.4562 23.4048 14.2124 23.4048H14.1749ZM11.7374 12.736C11.9437 12.7923 12.0937 12.9423 12.1499 13.1485L14.3062 20.9485L20.9437 3.90477L3.88117 10.5423L11.7374 12.736Z" fill="#EAB308"/>
</g>
</svg>
