<svg width="24" height="25" viewBox="0 0 24 25" fill="none" xmlns="http://www.w3.org/2000/svg">
<g id="chat-alt-svgrepo-com 1">
<g id="Group 2052">
<path id="Vector" d="M21 12.4815C21 8.23886 21 6.11755 19.6819 4.79952C18.364 3.48151 16.2426 3.48151 12 3.48151C7.75736 3.48151 5.63604 3.48151 4.31802 4.79952C3 6.11755 3 8.23886 3 12.4815V19.2315C3 20.2922 3 20.8225 3.3295 21.152C3.65901 21.4815 4.18934 21.4815 5.25 21.4815H12C16.2426 21.4815 18.364 21.4815 19.6819 20.1635C21 18.8455 21 16.7241 21 12.4815Z" stroke="#EAB308" stroke-width="2"/>
<path id="Vector_2" d="M8 9.48151H17" stroke="#EAB308" stroke-width="2" stroke-linecap="round" stroke-linejoin="round"/>
<path id="Vector_3" d="M8 13.4815H13" stroke="#EAB308" stroke-width="2" stroke-linecap="round" stroke-linejoin="round"/>
</g>
</g>
</svg>
