<svg width="24" height="24" viewBox="0 0 24 24" fill="none" xmlns="http://www.w3.org/2000/svg">
<g id="Chart">
<g id="Iconly/Light-Outline/Chart">
<g id="Chart_2">
<path id="Combined-Shape" fill-rule="evenodd" clip-rule="evenodd" d="M7.564 22.7242C3.937 22.7242 1.5 20.2326 1.5 16.5246L1.5 7.88316C1.5 4.17509 3.937 1.68347 7.564 1.68347L16.936 1.68347C20.563 1.68347 23 4.17509 23 7.88316L23 16.5246C23 20.2326 20.563 22.7242 16.936 22.7242L7.564 22.7242ZM7.564 21.2563H16.936C19.708 21.2563 21.5 19.3998 21.5 16.5246V7.88316C21.5 5.00791 19.708 3.15143 16.936 3.15143L7.564 3.15143C4.791 3.15143 3 5.00791 3 7.88316L3 16.5246C3 19.3998 4.791 21.2563 7.564 21.2563ZM16.8789 14.6969C16.4649 14.6969 16.1289 14.3681 16.1289 13.963V7.24949C16.1289 6.84433 16.4649 6.51551 16.8789 6.51551C17.2929 6.51551 17.6289 6.84433 17.6289 7.24949V13.963C17.6289 14.3681 17.2929 14.6969 16.8789 14.6969ZM12.2119 17.9108C11.7979 17.9108 11.4619 17.582 11.4619 17.1768L11.4619 7.25047C11.4619 6.84531 11.7979 6.51649 12.2119 6.51649C12.6259 6.51649 12.9619 6.84531 12.9619 7.25047L12.9619 17.1768C12.9619 17.582 12.6259 17.9108 12.2119 17.9108ZM7.6216 11.1494C7.2076 11.1494 6.8716 10.8205 6.8716 10.4154L6.8716 7.25047C6.8716 6.84531 7.2076 6.51649 7.6216 6.51649C8.0356 6.51649 8.3716 6.84531 8.3716 7.25047V10.4154C8.3716 10.8205 8.0356 11.1494 7.6216 11.1494Z" fill="#EAB308"/>
</g>
</g>
</g>
</svg>
